<svg width="126" height="126" viewBox="0 0 126 126" fill="none" xmlns="http://www.w3.org/2000/svg">
<path d="M70.4027 63L103.478 29.9775C104.466 28.9889 105.022 27.6481 105.022 26.25C105.022 24.8519 104.466 23.5111 103.478 22.5225C102.489 21.5339 101.148 20.9785 99.7502 20.9785C98.3521 20.9785 97.0113 21.5339 96.0227 22.5225L63.0002 55.5975L29.9777 22.5225C28.9891 21.5339 27.6483 20.9785 26.2502 20.9785C24.8521 20.9785 23.5113 21.5339 22.5227 22.5225C21.5341 23.5111 20.9787 24.8519 20.9787 26.25C20.9787 27.6481 21.5341 28.9889 22.5227 29.9775L55.5977 63L22.5227 96.0225C22.0306 96.5106 21.64 97.0912 21.3735 97.731C21.107 98.3707 20.9697 99.0569 20.9697 99.75C20.9697 100.443 21.107 101.129 21.3735 101.769C21.64 102.409 22.0306 102.989 22.5227 103.477C23.0107 103.97 23.5914 104.36 24.2311 104.627C24.8709 104.893 25.5571 105.03 26.2502 105.03C26.9432 105.03 27.6294 104.893 28.2692 104.627C28.909 104.36 29.4896 103.97 29.9777 103.477L63.0002 70.4025L96.0227 103.477C96.5107 103.97 97.0914 104.36 97.7311 104.627C98.3709 104.893 99.0571 105.03 99.7502 105.03C100.443 105.03 101.129 104.893 101.769 104.627C102.409 104.36 102.99 103.97 103.478 103.477C103.97 102.989 104.36 102.409 104.627 101.769C104.893 101.129 105.031 100.443 105.031 99.75C105.031 99.0569 104.893 98.3707 104.627 97.731C104.36 97.0912 103.97 96.5106 103.478 96.0225L70.4027 63Z" fill="#fff"/>
</svg>
