<svg width="88" height="88" viewBox="0 0 88 88" fill="none" xmlns="http://www.w3.org/2000/svg">
<path d="M79.2933 62.0518H8.70716M79.2933 62.0518V16.7132C79.2933 14.894 77.8193 13.4217 76.0018 13.4217H11.9987C10.1812 13.4217 8.70716 14.8957 8.70716 16.7132V62.0518M79.2933 62.0518L84.2619 70.6725C84.4903 71.0684 84.6105 71.5175 84.6104 71.9745C84.6103 72.4316 84.4898 72.8806 84.2612 73.2764C84.0326 73.6722 83.7039 74.0009 83.308 74.2294C82.9122 74.458 82.4649 74.5783 82.0078 74.5783H5.99101C5.53393 74.5783 5.0849 74.458 4.68905 74.2294C4.2932 74.0009 3.96445 73.6722 3.73585 73.2764C3.50725 72.8806 3.38684 72.4316 3.38672 71.9745C3.3866 71.5175 3.50677 71.0684 3.73516 70.6725L8.70716 62.0518" stroke="white" stroke-width="2" stroke-miterlimit="10" stroke-linecap="round" stroke-linejoin="round"/>
<path d="M45.1286 68.3151H42.8711" stroke="white" stroke-width="2" stroke-miterlimit="10" stroke-linecap="round" stroke-linejoin="round"/>
<path d="M37.9535 51.5782L25.2036 38.8283L37.9535 26.0785M50.0467 51.5782L62.7965 38.8283L50.0467 26.0785" stroke="white" stroke-width="2" stroke-miterlimit="10" stroke-linecap="round" stroke-linejoin="round"/>
<path d="M79.2933 62.0518H8.70716M79.2933 62.0518V16.7132C79.2933 14.894 77.8193 13.4217 76.0018 13.4217H11.9987C10.1812 13.4217 8.70716 14.8957 8.70716 16.7132V62.0518M79.2933 62.0518L84.2619 70.6725C84.4903 71.0684 84.6105 71.5175 84.6104 71.9745C84.6103 72.4316 84.4898 72.8806 84.2612 73.2764C84.0326 73.6722 83.7039 74.0009 83.308 74.2294C82.9122 74.458 82.4649 74.5783 82.0078 74.5783H5.99101C5.53393 74.5783 5.0849 74.458 4.68905 74.2294C4.2932 74.0009 3.96445 73.6722 3.73585 73.2764C3.50725 72.8806 3.38684 72.4316 3.38672 71.9745C3.3866 71.5175 3.50677 71.0684 3.73516 70.6725L8.70716 62.0518M45.129 68.3151H42.8715" stroke="white" stroke-width="4" stroke-miterlimit="10" stroke-linecap="round" stroke-linejoin="round"/>
<path d="M37.9535 51.5782L25.2036 38.8283L37.9535 26.0785M50.0467 51.5782L62.7965 38.8283L50.0467 26.0785" stroke="white" stroke-width="4" stroke-miterlimit="10" stroke-linecap="round" stroke-linejoin="round"/>
</svg>
