<svg width="26" height="26" viewBox="0 0 26 26" fill="none" xmlns="http://www.w3.org/2000/svg">
<path d="M15.481 18.7308L14.0835 20.1392V14.0833C14.0835 13.796 13.9694 13.5205 13.7662 13.3173C13.5631 13.1141 13.2875 13 13.0002 13C12.7129 13 12.4373 13.1141 12.2342 13.3173C12.031 13.5205 11.9169 13.796 11.9169 14.0833V20.1392L10.5194 18.7308C10.4183 18.6298 10.2984 18.5497 10.1665 18.495C10.0345 18.4404 9.89303 18.4122 9.75019 18.4122C9.60734 18.4122 9.46589 18.4404 9.33392 18.495C9.20194 18.5497 9.08203 18.6298 8.98102 18.7308C8.88001 18.8318 8.79989 18.9518 8.74522 19.0837C8.69056 19.2157 8.66242 19.3572 8.66242 19.5C8.66242 19.6428 8.69056 19.7843 8.74522 19.9163C8.79989 20.0482 8.88001 20.1682 8.98102 20.2692L12.231 23.5192C12.334 23.6178 12.4555 23.6951 12.5885 23.7467C12.7182 23.804 12.8584 23.8336 13.0002 23.8336C13.142 23.8336 13.2822 23.804 13.4119 23.7467C13.5448 23.6951 13.6663 23.6178 13.7694 23.5192L17.0194 20.2692C17.2233 20.0652 17.338 19.7885 17.338 19.5C17.338 19.2115 17.2233 18.9348 17.0194 18.7308C16.8154 18.5268 16.5387 18.4122 16.2502 18.4122C15.9617 18.4122 15.685 18.5268 15.481 18.7308ZM19.9552 6.73833C19.2933 5.21734 18.1509 3.95533 16.7031 3.1457C15.2553 2.33607 13.582 2.02348 11.9396 2.25583C10.2971 2.48818 8.77619 3.25266 7.6098 4.4321C6.4434 5.61155 5.69591 7.14091 5.48185 8.78583C4.44899 9.03318 3.54293 9.65123 2.93574 10.5226C2.32854 11.394 2.06251 12.458 2.18816 13.5126C2.3138 14.5673 2.82237 15.539 3.61729 16.2433C4.41221 16.9477 5.43812 17.3356 6.50019 17.3333C6.7875 17.3333 7.06305 17.2192 7.26622 17.016C7.46938 16.8129 7.58352 16.5373 7.58352 16.25C7.58352 15.9627 7.46938 15.6871 7.26622 15.484C7.06305 15.2808 6.7875 15.1667 6.50019 15.1667C5.92555 15.1667 5.37445 14.9384 4.96812 14.5321C4.56179 14.1257 4.33352 13.5746 4.33352 13C4.33352 12.4254 4.56179 11.8743 4.96812 11.4679C5.37445 11.0616 5.92555 10.8333 6.50019 10.8333C6.7875 10.8333 7.06305 10.7192 7.26622 10.516C7.46938 10.3129 7.58352 10.0373 7.58352 9.75C7.58629 8.46872 8.04316 7.2299 8.87298 6.25363C9.70279 5.27736 10.8518 4.62686 12.1159 4.41769C13.38 4.20853 14.6773 4.45424 15.7774 5.11117C16.8774 5.76811 17.709 6.79373 18.1244 8.00583C18.1863 8.19199 18.2976 8.35784 18.4464 8.48568C18.5952 8.61351 18.776 8.69853 18.9694 8.73167C19.6909 8.86803 20.345 9.24473 20.8251 9.80041C21.3052 10.3561 21.583 11.058 21.6131 11.7917C21.6433 12.5254 21.4241 13.2477 20.9912 13.8409C20.5583 14.4341 19.9373 14.8632 19.2294 15.0583C19.0914 15.0939 18.9617 15.1563 18.8478 15.242C18.734 15.3276 18.6381 15.4349 18.5656 15.5576C18.4932 15.6804 18.4457 15.8161 18.4257 15.9572C18.4057 16.0983 18.4138 16.242 18.4494 16.38C18.4849 16.518 18.5473 16.6476 18.633 16.7615C18.7187 16.8754 18.8259 16.9713 18.9486 17.0437C19.0714 17.1162 19.2072 17.1637 19.3483 17.1837C19.4894 17.2036 19.633 17.1956 19.771 17.16C20.9111 16.8587 21.9217 16.1937 22.6494 15.2658C23.3771 14.3379 23.7822 13.1978 23.803 12.0188C23.8238 10.8398 23.4594 9.68613 22.7649 8.7331C22.0704 7.78006 21.0839 7.07969 19.9552 6.73833Z" fill="#080027"/>
</svg>
