<svg width="42" height="42" viewBox="0 0 42 42" fill="none" xmlns="http://www.w3.org/2000/svg">
<path d="M35.8049 16.8525C35.5592 14.2956 34.6556 11.8459 33.182 9.74192C31.7084 7.63796 29.7151 5.95144 27.3962 4.8466C25.0772 3.74176 22.5117 3.25625 19.9494 3.43735C17.3871 3.61844 14.9154 4.45997 12.7749 5.87999C10.936 7.10962 9.39226 8.73126 8.25457 10.6284C7.11687 12.5256 6.41348 14.6512 6.19491 16.8525C5.98051 19.0394 6.25559 21.2466 7.00021 23.314C7.74483 25.3813 8.94031 27.257 10.4999 28.805L19.7749 38.0975C19.9376 38.2615 20.1312 38.3917 20.3444 38.4806C20.5577 38.5694 20.7864 38.6151 21.0174 38.6151C21.2484 38.6151 21.4772 38.5694 21.6904 38.4806C21.9037 38.3917 22.0972 38.2615 22.2599 38.0975L31.4999 28.805C33.0595 27.257 34.255 25.3813 34.9996 23.314C35.7442 21.2466 36.0193 19.0394 35.8049 16.8525ZM29.0499 26.3375L20.9999 34.3875L12.9499 26.3375C11.7636 25.1511 10.8548 23.7166 10.289 22.1371C9.72315 20.5576 9.51429 18.8723 9.67741 17.2025C9.8416 15.5069 10.3805 13.869 11.2552 12.4072C12.1298 10.9454 13.3184 9.69623 14.7349 8.74999C16.5916 7.51665 18.7709 6.85876 20.9999 6.85876C23.2289 6.85876 25.4083 7.51665 27.2649 8.74999C28.6771 9.69257 29.8631 10.9362 30.7375 12.3916C31.612 13.847 32.1532 15.478 32.3224 17.1675C32.4909 18.843 32.2846 20.535 31.7186 22.121C31.1526 23.7069 30.2411 25.1472 29.0499 26.3375ZM20.9999 10.5C19.4424 10.5 17.9198 10.9619 16.6248 11.8272C15.3298 12.6925 14.3204 13.9224 13.7244 15.3614C13.1283 16.8003 12.9724 18.3837 13.2762 19.9113C13.5801 21.4389 14.3301 22.8421 15.4314 23.9435C16.5328 25.0448 17.936 25.7948 19.4636 26.0987C20.9912 26.4025 22.5746 26.2466 24.0135 25.6505C25.4525 25.0545 26.6824 24.0451 27.5477 22.7501C28.4131 21.4551 28.8749 19.9325 28.8749 18.375C28.8703 16.2878 28.0391 14.2875 26.5633 12.8116C25.0874 11.3358 23.0871 10.5046 20.9999 10.5ZM20.9999 22.75C20.1346 22.75 19.2888 22.4934 18.5693 22.0127C17.8498 21.5319 17.2891 20.8487 16.9579 20.0492C16.6268 19.2498 16.5402 18.3701 16.709 17.5215C16.8778 16.6728 17.2945 15.8933 17.9063 15.2814C18.5182 14.6695 19.2977 14.2529 20.1464 14.0841C20.9951 13.9152 21.8747 14.0019 22.6742 14.333C23.4736 14.6642 24.1569 15.2249 24.6376 15.9444C25.1183 16.6638 25.3749 17.5097 25.3749 18.375C25.3749 19.5353 24.914 20.6481 24.0935 21.4686C23.273 22.2891 22.1602 22.75 20.9999 22.75Z" fill="white"/>
</svg>
