<svg width="60" height="60" viewBox="0 0 60 60" fill="none" xmlns="http://www.w3.org/2000/svg">
<path d="M49.8136 50.2498L38.1808 36.2336C42.4367 35.3067 50.9951 31.3071 50.8067 22.5011C50.5797 11.8897 40.1464 9.66135 38.2659 9.56311C34.4639 9.36451 24.2308 9.52528 17.497 9.56311C15.927 9.64823 12.5601 10.8739 12.4466 14.4149C12.3331 17.9558 12.4561 36.8105 12.5034 45.8236C12.5034 47.2139 13.2467 49.4553 16.1067 49.9093C17.3879 50.1127 18.6886 50.1363 20.0222 50.1363C21.5259 50.1363 22.9036 50.1994 24.3916 49.2283C27.087 47.4692 33.2155 39.0425 33.2155 39.0425" stroke="#080027" stroke-width="4" stroke-linecap="round"/>
<path d="M24.642 28.9985C24.642 28.9985 30.8556 28.9985 33.6362 28.9985C36.5586 29.1071 42.0118 28.1976 41.921 22.9316C41.9664 18.8686 38.469 17.621 36.6437 17.5075H21.5493" stroke="#080027" stroke-width="4" stroke-linecap="round"/>
<rect x="2" y="2" width="56" height="56" rx="7" stroke="#080027" stroke-width="4"/>
</svg>
