<svg width="78" height="78" viewBox="0 0 78 78" fill="none" xmlns="http://www.w3.org/2000/svg">
<path fill-rule="evenodd" clip-rule="evenodd" d="M58 20H31.1832C25.0069 20 20 25.0401 20 31.2573C20 37.4745 25.0069 42.5145 31.1832 42.5145H34.8216L29.84 45.3393L32.3832 50.9709L35.5086 43.3862V50.9709L26.9828 54.7846L20 58H46.8168C52.9931 58 58 52.9599 58 46.7427C58 40.5255 52.9931 35.4855 46.8168 35.4855H42.4914V27.0291L51.0172 23.2154L58 20ZM31.1832 35.4855H35.5086L42.4914 27.0291H31.1832C28.8634 27.0291 26.9828 28.9221 26.9828 31.2573C26.9828 33.5924 28.8634 35.4855 31.1832 35.4855ZM46.8168 42.5145H42.4914L35.5086 50.9709H46.8168C49.1366 50.9709 51.0172 49.0779 51.0172 46.7427C51.0172 44.4076 49.1366 42.5145 46.8168 42.5145Z" fill="black"/>
<circle cx="39" cy="39" r="37" stroke="black" stroke-width="4"/>
</svg>
