<svg width="126" height="126" viewBox="0 0 126 126" fill="none" xmlns="http://www.w3.org/2000/svg">
<path d="M106.826 32.1848H19.1741C14.2437 32.1848 10.272 28.213 10.272 23.2826C10.272 18.3522 14.2437 14.3804 19.1741 14.3804H106.826C111.757 14.3804 115.728 18.3522 115.728 23.2826C115.728 28.213 111.757 32.1848 106.826 32.1848ZM115.728 63C115.728 58.0696 111.757 54.0978 106.826 54.0978H19.1741C14.2437 54.0978 10.272 58.0696 10.272 63C10.272 67.9304 14.2437 71.9022 19.1741 71.9022H106.826C111.757 71.9022 115.728 67.9304 115.728 63ZM115.728 102.717C115.728 97.7869 111.757 93.8152 106.826 93.8152H19.1741C14.2437 93.8152 10.272 97.7869 10.272 102.717C10.272 107.648 14.2437 111.62 19.1741 111.62H106.826C111.757 111.62 115.728 107.648 115.728 102.717Z" fill="#080027"/>
</svg>
