<svg width="82" height="82" viewBox="0 0 82 82" fill="none" xmlns="http://www.w3.org/2000/svg">
<path d="M33.3125 17.9375C33.3125 16.4 32.2875 15.375 30.75 15.375H25.625C24.0875 15.375 23.0625 16.4 23.0625 17.9375C23.0625 19.475 24.0875 20.5 25.625 20.5H30.75C32.2875 20.5 33.3125 19.475 33.3125 17.9375Z" fill="white"/>
<path d="M69.1875 30.75H51.25V12.8125C51.25 8.45625 47.9188 5.125 43.5625 5.125H12.8125C8.45625 5.125 5.125 8.45625 5.125 12.8125V69.1875C5.125 73.5437 8.45625 76.875 12.8125 76.875H30.75C32.2875 76.875 33.3125 75.85 33.3125 74.3125C33.3125 72.775 32.2875 71.75 30.75 71.75H12.8125C11.275 71.75 10.25 70.725 10.25 69.1875V12.8125C10.25 11.275 11.275 10.25 12.8125 10.25H43.5625C45.1 10.25 46.125 11.275 46.125 12.8125V30.75H38.4375C34.0812 30.75 30.75 34.0812 30.75 38.4375V58.9375C30.75 63.2938 34.0812 66.625 38.4375 66.625H46.125V71.75H41C39.4625 71.75 38.4375 72.775 38.4375 74.3125C38.4375 75.85 39.4625 76.875 41 76.875H66.625C68.1625 76.875 69.1875 75.85 69.1875 74.3125C69.1875 72.775 68.1625 71.75 66.625 71.75H61.5V66.625H69.1875C73.5437 66.625 76.875 63.2938 76.875 58.9375V38.4375C76.875 34.0812 73.5437 30.75 69.1875 30.75ZM56.375 71.75H51.25V66.625H56.375V71.75ZM71.75 58.9375C71.75 60.475 70.725 61.5 69.1875 61.5H38.4375C36.9 61.5 35.875 60.475 35.875 58.9375V38.4375C35.875 36.9 36.9 35.875 38.4375 35.875H69.1875C70.725 35.875 71.75 36.9 71.75 38.4375V58.9375Z" fill="white"/>
</svg>
