<svg width="88" height="88" viewBox="0 0 88 88" fill="none" xmlns="http://www.w3.org/2000/svg">
<path d="M40.7108 38.2725C39.5892 38.92 38.6847 39.8857 38.1119 41.0473C37.539 42.2089 37.3235 43.5143 37.4926 44.7984C37.6617 46.0824 38.2077 47.2876 39.0617 48.2613C39.9157 49.2351 41.0392 49.9337 42.2903 50.2689C43.5413 50.6041 44.8637 50.5607 46.0901 50.1444C47.3165 49.728 48.3919 48.9573 49.1803 47.9298C49.9687 46.9022 50.4347 45.664 50.5194 44.3716C50.604 43.0792 50.3035 41.7907 49.6559 40.6691C48.7874 39.1651 47.3572 38.0678 45.6797 37.6183C44.0022 37.1689 42.2148 37.4042 40.7108 38.2725ZM70.0614 45.3773C69.6315 44.8859 69.1778 44.3933 68.7005 43.8993C69.0339 43.5489 69.3566 43.1987 69.6684 42.8489C75.5565 36.2332 78.0415 29.5986 75.7389 25.6099C73.531 21.7855 66.963 20.6459 58.7405 22.2446C57.9306 22.4031 57.1252 22.5818 56.3242 22.7809C56.1708 22.2523 56.0078 21.7267 55.8349 21.2042C53.0455 12.7982 48.5395 7.33048 43.934 7.33338C39.5179 7.33539 35.2496 12.456 32.5268 20.3775C32.2589 21.159 32.0111 21.947 31.7834 22.7415C31.2478 22.6101 30.71 22.4887 30.17 22.3774C21.4947 20.5962 14.5072 21.7693 12.2091 25.7602C10.0054 29.5874 12.31 35.8429 17.8136 42.158C18.3594 42.7828 18.9207 43.3937 19.4974 43.9904C18.8175 44.6908 18.1738 45.3907 17.5737 46.0867C12.2035 52.3127 10.0307 58.466 12.2308 62.2765C14.503 66.2126 21.3921 67.4992 29.7772 65.8492C30.4568 65.7145 31.1326 65.5629 31.8046 65.3945C32.0508 66.2539 32.3209 67.1058 32.6148 67.9502C35.3256 75.7128 39.5699 80.6685 43.9704 80.6669C48.515 80.6642 53.0709 75.3397 55.8311 67.2515C56.0491 66.6123 56.2555 65.9486 56.4511 65.2651C57.3192 65.4811 58.1929 65.6727 59.0722 65.84C67.1512 67.3686 73.5647 66.1664 75.7608 62.353C78.0286 58.414 75.6905 51.8076 70.0614 45.3773ZM14.9238 27.3235C16.3387 24.8668 22.049 23.9084 29.5395 25.4461C30.0182 25.5446 30.5051 25.6546 31.0002 25.7761C30.2689 29.0111 29.7529 32.291 29.4556 35.5942C26.7529 37.4956 24.1761 39.5699 21.7413 41.8041C21.2049 41.2493 20.6828 40.6811 20.175 40.0995C15.4594 34.6886 13.5958 29.6297 14.9238 27.3235ZM29.1749 48.3265C27.3029 46.9089 25.5631 45.4567 23.984 43.9961C25.562 42.5446 27.3029 41.0973 29.1711 39.6836C29.104 41.1237 29.0707 42.565 29.0713 44.0073C29.0723 45.4475 29.1068 46.8873 29.1749 48.3265ZM29.1727 62.7754C25.9946 63.482 22.7137 63.5978 19.4938 63.1169C18.6111 63.0481 17.7518 62.7991 16.9692 62.3852C16.1865 61.9713 15.4971 61.4013 14.9434 60.7104C13.6085 58.3979 15.3532 53.4577 19.9459 48.1329C20.5233 47.4656 21.1197 46.8157 21.7349 46.1832C24.1701 48.4291 26.7511 50.5115 29.461 52.4168C29.7624 55.7622 30.2845 59.0841 31.0238 62.3608C30.4103 62.5142 29.7933 62.6524 29.1727 62.7754ZM55.2102 33.2977C53.9804 32.5228 52.7354 31.7728 51.4753 31.0477C50.2352 30.3339 48.9802 29.6469 47.7103 28.9867C49.8847 28.0725 52.022 27.2917 54.0854 26.6554C54.5718 28.8492 54.9472 31.0661 55.2102 33.2977ZM35.4895 21.3958C37.8223 14.6083 41.2741 10.4672 43.9357 10.4661C46.7703 10.4647 50.4533 14.933 52.8616 22.1907C53.018 22.6638 53.1659 23.1396 53.3053 23.6181C50.1413 24.5994 47.0458 25.789 44.039 27.1791C41.0447 25.7727 37.9589 24.5698 34.8027 23.5787C35.0136 22.8456 35.2426 22.1179 35.4895 21.3958ZM34.0215 26.6164C36.1737 27.294 38.2904 28.0796 40.3636 28.9704C37.7949 30.296 35.2925 31.7399 32.8566 33.3022C33.1509 30.9628 33.5425 28.7215 34.0215 26.6164ZM32.8619 54.7055C34.0767 55.4832 35.3092 56.2321 36.5595 56.9522C37.8349 57.6865 39.1272 58.39 40.4365 59.0626C38.3476 59.9842 36.2126 60.7979 34.0402 61.5006C33.5557 59.3663 33.1598 57.0856 32.8619 54.7055ZM52.8661 66.2391C51.8907 69.3452 50.3518 72.2453 48.3265 74.7943C47.826 75.5245 47.1808 76.1445 46.4313 76.6156C45.6819 77.0867 44.8437 77.3991 43.9688 77.5335C41.2986 77.5351 37.8907 73.5552 35.5724 66.9169C35.2994 66.132 35.0482 65.34 34.8188 64.5409C37.9902 63.5178 41.0885 62.2809 44.0925 60.8387C47.124 62.2378 50.2442 63.4363 53.4328 64.4265C53.2587 65.0351 53.0698 65.6393 52.8661 66.2391ZM54.1943 61.3836C52.1072 60.7383 49.9389 59.9444 47.7332 59.0167C48.9766 58.3624 50.229 57.6713 51.4905 56.9435C52.7849 56.196 54.0464 55.4298 55.2748 54.6449C55.0302 56.9082 54.6695 59.1573 54.1943 61.3836ZM55.8307 43.9938C55.8335 46.2205 55.7639 48.4455 55.6222 50.6687C53.8157 51.8913 51.9085 53.0851 49.9242 54.2306C47.9481 55.3715 45.9901 56.42 44.0695 57.3689C42.0484 56.4003 40.0662 55.3566 38.123 54.2376C36.1908 53.1254 34.3028 51.941 32.4592 50.6846C32.2907 48.4621 32.2058 46.2355 32.2045 44.005C32.203 41.7759 32.2864 39.5499 32.4541 37.3256C34.2601 36.0922 36.1534 34.8994 38.1109 33.7692C40.0774 32.6337 42.0599 31.5897 44.0314 30.6435C46.0277 31.6136 47.9879 32.6533 49.9121 33.7625C51.843 34.8723 53.7363 36.044 55.5918 37.2777C55.7511 39.513 55.8306 41.7517 55.8307 43.9938ZM59.3388 25.3201C66.3836 23.9498 71.6954 24.8716 73.0261 27.1762C74.4436 29.6315 72.412 35.054 67.3287 40.7662C67.0478 41.0813 66.7562 41.398 66.4543 41.7157C63.9774 39.4768 61.351 37.4091 58.5931 35.5269C58.3148 32.2598 57.8182 29.015 57.1064 25.8142C57.865 25.6275 58.6091 25.4628 59.3388 25.3201ZM58.8625 39.564C60.7227 40.9221 62.5112 42.3759 64.2208 43.9194C62.5188 45.4882 60.7359 46.9671 58.8795 48.3498C58.9364 46.8981 58.9643 45.4456 58.9634 43.9923C58.9628 42.5159 58.9291 41.0397 58.8625 39.564ZM73.0456 60.7894C71.7129 63.1037 66.5633 64.0687 59.6541 62.7615C58.8623 62.612 58.0498 62.4341 57.2167 62.2277C57.9113 58.9858 58.3859 55.7006 58.6374 52.3946C61.3906 50.4796 64.0088 48.3775 66.4734 46.1031C66.9046 46.5511 67.3148 46.9971 67.704 47.4409C69.9079 49.8373 71.6519 52.6186 72.8486 55.6464C73.2313 56.4446 73.4463 57.3129 73.4801 58.1975C73.514 59.0821 73.3661 59.9642 73.0456 60.7894Z" fill="white"/>
</svg>
