<svg width="80" height="80" viewBox="0 0 80 80" fill="none" xmlns="http://www.w3.org/2000/svg">
<path d="M75 16.25C75.3315 16.25 75.6495 16.1183 75.8839 15.8839C76.1183 15.6495 76.25 15.3315 76.25 15V5C76.25 4.66848 76.1183 4.35054 75.8839 4.11612C75.6495 3.8817 75.3315 3.75 75 3.75H65C64.6685 3.75 64.3505 3.8817 64.1161 4.11612C63.8817 4.35054 63.75 4.66848 63.75 5V8.75H46.25V5C46.25 4.66848 46.1183 4.35054 45.8839 4.11612C45.6495 3.8817 45.3315 3.75 45 3.75H35C34.6685 3.75 34.3505 3.8817 34.1161 4.11612C33.8817 4.35054 33.75 4.66848 33.75 5V8.75H16.25V5C16.25 4.66848 16.1183 4.35054 15.8839 4.11612C15.6495 3.8817 15.3315 3.75 15 3.75H5C4.66848 3.75 4.35054 3.8817 4.11612 4.11612C3.8817 4.35054 3.75 4.66848 3.75 5V15C3.75 15.3315 3.8817 15.6495 4.11612 15.8839C4.35054 16.1183 4.66848 16.25 5 16.25H8.75V33.75H5C4.66848 33.75 4.35054 33.8817 4.11612 34.1161C3.8817 34.3505 3.75 34.6685 3.75 35V45C3.75 45.3315 3.8817 45.6495 4.11612 45.8839C4.35054 46.1183 4.66848 46.25 5 46.25H8.75V63.75H5C4.66848 63.75 4.35054 63.8817 4.11612 64.1161C3.8817 64.3505 3.75 64.6685 3.75 65V75C3.75 75.3315 3.8817 75.6495 4.11612 75.8839C4.35054 76.1183 4.66848 76.25 5 76.25H15C15.3315 76.25 15.6495 76.1183 15.8839 75.8839C16.1183 75.6495 16.25 75.3315 16.25 75V71.25H33.75V75C33.75 75.3315 33.8817 75.6495 34.1161 75.8839C34.3505 76.1183 34.6685 76.25 35 76.25H45C45.3315 76.25 45.6495 76.1183 45.8839 75.8839C46.1183 75.6495 46.25 75.3315 46.25 75V71.25H63.75V75C63.75 75.3315 63.8817 75.6495 64.1161 75.8839C64.3505 76.1183 64.6685 76.25 65 76.25H75C75.3315 76.25 75.6495 76.1183 75.8839 75.8839C76.1183 75.6495 76.25 75.3315 76.25 75V65C76.25 64.6685 76.1183 64.3505 75.8839 64.1161C75.6495 63.8817 75.3315 63.75 75 63.75H71.25V46.25H75C75.3315 46.25 75.6495 46.1183 75.8839 45.8839C76.1183 45.6495 76.25 45.3315 76.25 45V35C76.25 34.6685 76.1183 34.3505 75.8839 34.1161C75.6495 33.8817 75.3315 33.75 75 33.75H71.25V16.25H75ZM68.75 33.75H65C64.6685 33.75 64.3505 33.8817 64.1161 34.1161C63.8817 34.3505 63.75 34.6685 63.75 35V45C63.75 45.3315 63.8817 45.6495 64.1161 45.8839C64.3505 46.1183 64.6685 46.25 65 46.25H68.75V63.75H65C64.6685 63.75 64.3505 63.8817 64.1161 64.1161C63.8817 64.3505 63.75 64.6685 63.75 65V68.75H46.25V65C46.25 64.6685 46.1183 64.3505 45.8839 64.1161C45.6495 63.8817 45.3315 63.75 45 63.75H35C34.6685 63.75 34.3505 63.8817 34.1161 64.1161C33.8817 64.3505 33.75 64.6685 33.75 65V68.75H16.25V65C16.25 64.6685 16.1183 64.3505 15.8839 64.1161C15.6495 63.8817 15.3315 63.75 15 63.75H11.25V46.25H15C15.3315 46.25 15.6495 46.1183 15.8839 45.8839C16.1183 45.6495 16.25 45.3315 16.25 45V35C16.25 34.6685 16.1183 34.3505 15.8839 34.1161C15.6495 33.8817 15.3315 33.75 15 33.75H11.25V16.25H15C15.3315 16.25 15.6495 16.1183 15.8839 15.8839C16.1183 15.6495 16.25 15.3315 16.25 15V11.25H33.75V15C33.75 15.3315 33.8817 15.6495 34.1161 15.8839C34.3505 16.1183 34.6685 16.25 35 16.25H45C45.3315 16.25 45.6495 16.1183 45.8839 15.8839C46.1183 15.6495 46.25 15.3315 46.25 15V11.25H63.75V15C63.75 15.3315 63.8817 15.6495 64.1161 15.8839C64.3505 16.1183 64.6685 16.25 65 16.25H68.75V33.75Z" fill="white"/>
<path d="M45 33.75H35C34.3096 33.75 33.75 34.3096 33.75 35V45C33.75 45.6904 34.3096 46.25 35 46.25H45C45.6904 46.25 46.25 45.6904 46.25 45V35C46.25 34.3096 45.6904 33.75 45 33.75Z" fill="white"/>
</svg>
