<svg width="29" height="28" viewBox="0 0 29 28" fill="none" xmlns="http://www.w3.org/2000/svg">
<path d="M14.4999 2.79999C8.0938 2.79999 2.8999 7.81479 2.8999 14C2.8999 19.2481 6.64284 23.6395 11.6888 24.8547C11.6347 24.7035 11.5999 24.528 11.5999 24.3105V22.3963C11.1291 22.3963 10.3403 22.3963 10.1422 22.3963C9.34854 22.3963 8.64287 22.0668 8.30067 21.4545C7.92077 20.7741 7.85504 19.7335 6.9135 19.0969C6.63414 18.8851 6.8468 18.6433 7.1687 18.676C7.7632 18.8384 8.2562 19.2323 8.7202 19.8165C9.18227 20.4017 9.39977 20.5343 10.263 20.5343C10.6816 20.5343 11.308 20.5109 11.8976 20.4213C12.2147 19.6439 12.7628 18.928 13.4327 18.5901C9.5699 18.2065 7.72647 16.3511 7.72647 13.832C7.72647 12.7475 8.20497 11.6984 9.01794 10.8145C8.75114 9.93719 8.4157 8.14799 9.1204 7.46665C10.8585 7.46665 11.9092 8.55492 12.1615 8.84892C13.0277 8.56239 13.9789 8.39999 14.9784 8.39999C15.9799 8.39999 16.9349 8.56239 17.803 8.85079C18.0524 8.55865 19.1041 7.46665 20.8461 7.46665C21.5537 8.14892 21.2144 9.94559 20.9447 10.8211C21.7528 11.7031 22.2284 12.7493 22.2284 13.832C22.2284 16.3492 20.3879 18.2037 16.5309 18.5892C17.5923 19.124 18.3666 20.6267 18.3666 21.7588V24.3105C18.3666 24.4076 18.3443 24.4776 18.3327 24.5607C22.8529 23.0309 26.0999 18.8869 26.0999 14C26.0999 7.81479 20.906 2.79999 14.4999 2.79999Z" fill="#080027"/>
</svg>
