<svg width="29" height="28" viewBox="0 0 29 28" fill="none" xmlns="http://www.w3.org/2000/svg">
<path d="M23.2 3.73334H5.80003C4.73187 3.73334 3.8667 4.56867 3.8667 5.6V22.4C3.8667 23.4313 4.73187 24.2667 5.80003 24.2667H23.2C24.2682 24.2667 25.1334 23.4313 25.1334 22.4V5.6C25.1334 4.56867 24.2682 3.73334 23.2 3.73334ZM10.5889 20.5333H7.73723V11.6741H10.5889V20.5333ZM9.13407 10.4076C8.21477 10.4076 7.4714 9.688 7.4714 8.80227C7.4714 7.91654 8.21573 7.19787 9.13407 7.19787C10.0505 7.19787 10.7958 7.91747 10.7958 8.80227C10.7958 9.688 10.0505 10.4076 9.13407 10.4076ZM21.2706 20.5333H18.4208V16.2251C18.4208 15.1975 18.4015 13.8759 16.9389 13.8759C15.4551 13.8759 15.227 14.9949 15.227 16.1504V20.5333H12.3772V11.6741H15.1129V12.8847H15.1516C15.5324 12.1884 16.4624 11.4539 17.8495 11.4539C20.737 11.4539 21.2706 13.2888 21.2706 15.6744V20.5333Z" fill="#080027"/>
</svg>
